<svg width="41" height="37" xmlns="http://www.w3.org/2000/svg">
 <defs>
  <linearGradient y2="1" x2="1" y1="0" x1="0" id="imagebot_50">
   <stop offset="0" stop-opacity="0.99609" stop-color="#727272"/>
   <stop offset="1" stop-opacity="0.99609" stop-color="#cccccc"/>
  </linearGradient>
  <linearGradient y2="1" x2="1" y1="0" x1="0" id="imagebot_51">
   <stop offset="0" stop-opacity="0.99609" stop-color="#727272"/>
   <stop offset="1" stop-opacity="0.99609" stop-color="#cccccc"/>
  </linearGradient>
  <linearGradient y2="1" x2="1" y1="0" x1="0" id="imagebot_52">
   <stop offset="0" stop-opacity="0.99609" stop-color="#727272"/>
   <stop offset="1" stop-opacity="0.99609" stop-color="#cccccc"/>
  </linearGradient>
  <linearGradient x2="1" y1="0" x1="0" id="imagebot_59" y2="1">
   <stop offset="0.21094" stop-color="#000000"/>
   <stop offset="0.76953" stop-opacity="0.99609" stop-color="#e8e8e8"/>
  </linearGradient>
  <linearGradient x2="1" y1="0" x1="0" id="imagebot_61" y2="1">
   <stop offset="0" stop-opacity="0.99609" stop-color="#4f4f4f"/>
   <stop offset="0.89453" stop-opacity="0.99219" stop-color="#d3d3d3"/>
  </linearGradient>
 </defs>
 <g id="imagebot_2">
  <g transform="matrix(1.25 0 0 -1.25 0 37.0012)" id="imagebot_25">
   <g id="imagebot_26">
    <g id="imagebot_27">
     <path fill-rule="evenodd" fill="url(#imagebot_50)" d="M10.398,-0.001L9.602,6.679L9.602,6.882L9.84,6.562L9.68,7.363C9.812,7.866 10.066,8.374 10.441,8.882C10.973,9.573 17.293,14.909 29.398,24.882L29.641,24.8C29.855,24.64 30.172,24.335 30.602,23.882C31.453,22.999 32.133,22.253 32.641,21.64L32.723,21.48L10.398,-0.001z" id="imagebot_28"/>
    </g>
   </g>
  </g>
  <g transform="matrix(1.25 0 0 -1.25 0 37.0012)" id="imagebot_20">
   <g id="imagebot_21">
    <g id="imagebot_22">
     <path fill-rule="evenodd" fill="url(#imagebot_52)" d="M29.762,25.96L9.961,9.241L10.078,9.601L9.559,8.882L9.32,8.679L9.238,8.64L8.68,9.402L8.84,8.64L1.602,12.921L22.441,29.601L29.762,25.96z" id="imagebot_23"/>
    </g>
   </g>
  </g>
  <g transform="matrix(1.25 0 0 -1.25 0 37.0012)" id="imagebot_15">
   <g id="imagebot_16">
    <g id="imagebot_17">
     <path fill-rule="evenodd" fill="url(#imagebot_61)" d="M9.961,9.241L29.762,25.96L32.641,21.64C32.133,22.253 31.453,22.999 30.602,23.882C30.172,24.335 29.852,24.64 29.641,24.8L29.398,24.882C17.293,14.905 10.973,9.573 10.441,8.882C10.066,8.374 9.812,7.866 9.68,7.363L9.602,7.722L9.559,8.159L9.961,9.241zM9.441,6.363C9.492,6.335 9.547,6.441 9.602,6.679L10.398,-0.001L9.441,6.363zM9.359,8.64L9.32,8.679L9.559,8.882L9.359,8.64z" id="imagebot_18"/>
    </g>
   </g>
  </g>
  <g transform="matrix(1.25 0 0 -1.25 0 37.0012)" id="imagebot_10">
   <g id="imagebot_11">
    <g id="imagebot_12">
     <path fill-rule="evenodd" fill="url(#imagebot_51)" d="M8.801,7.363L8.48,6.402L9,7.12C9.055,7.038 9.094,6.96 9.121,6.878C9.254,6.562 9.359,6.386 9.441,6.363L10.398,-0.001L0,8.523L1.602,12.921L5.121,10.48C7.012,9.093 8.238,8.054 8.801,7.363z" id="imagebot_13"/>
    </g>
   </g>
  </g>
  <g transform="matrix(1.25 0 0 -1.25 0 37.0012)" id="imagebot_5">
   <g id="imagebot_6">
    <g id="imagebot_7">
     <path fill-rule="evenodd" fill="url(#imagebot_59)" d="M9,7.12L9.199,7.441L9.602,6.878L9.602,6.679C9.547,6.441 9.492,6.335 9.441,6.363C9.359,6.386 9.254,6.562 9.121,6.878C9.094,6.96 9.055,7.042 9,7.12zM1.602,12.921L8.84,8.64L9,7.96L8.801,7.363C8.238,8.054 7.012,9.093 5.121,10.48L1.602,12.921zM9.238,8.64L9.32,8.679L9.359,8.64L9.281,8.562L9.238,8.64zM9.559,8.159L9.602,7.722L9.52,8.038L9.559,8.159z" id="imagebot_8"/>
    </g>
   </g>
  </g>
  <path transform="translate(0 -0.0512) matrix(1.25 0 0 -1.25 0.0512 36.5916)" fill-rule="evenodd" fill="#ffffff" d="M 9.183999502218114 7.671538154401466 L 9.438464380798564 8.433954079071349 L 9.360167495081502 8.76671584336886 L 9.281870609364443 9.139604761596365 L 9.554930998302693 8.76671584336886 L 9.575973286339153 8.728546111581792 L 9.61414301812622 8.76671584336886 L 9.712014125272546 8.885139883015917 L 9.965989648317265 9.236986513206961 L 9.908735050636665 9.06081852034357 L 9.712014125272546 8.531335830681947 L 9.692929259379014 8.474081233001343 L 9.733056413309008 8.317487461567222 L 9.771226145096076 8.141808824239565 L 9.849523030813135 7.749835040118527 L 9.733056413309008 7.90642881155265 L 9.535846132409159 8.179978556026633 L 9.438464380798564 8.022895429056778 L 9.183999502218114 7.671538154401466 z" id="imagebot_4"/>
  <title>imagebot_2</title>
 </g>
 <metadata>image/svg+xmlOpenclipart</metadata>
</svg>