<?xml version="1.0" ?>
<!-- Uploaded to: SVG Repo, www.svgrepo.com, Generator: SVG Repo Mixer Tools -->
<svg width="800px" height="800px" viewBox="0 0 64 64" xmlns="http://www.w3.org/2000/svg">
<g id="a"/>
<g id="b"/>
<g id="c"/>
<g id="d"/>
<g id="e"/>
<g id="f"/>
<g id="g"/>
<g id="h"/>
<g id="i"/>
<g id="j"/>
<g id="k"/>
<g id="l"/>
<g id="m"/>
<g id="n"/>
<g id="o"/>
<g id="p"/>
<g id="q"/>
<g id="r"/>
<g id="s"/>
<g id="t"/>
<g id="u"/>
<g id="v"/>
<g id="w"/>
<g id="x"/>
<g id="y"/>
<g id="a`"/>
<g id="aa"/>
<g id="ab"/>
<g id="ac"/>
<g id="ad"/>
<g id="ae"/>
<g id="af"/>
<g id="ag"/>
<g id="ah"/>
<g id="ai"/>
<g id="aj"/>
<g id="ak"/>
<g id="al"/>
<g id="am"/>
<g id="an"/>
<g id="ao"/>
<g id="ap"/>
<g id="aq"/>
<g id="ar">
<path d="M27.58,31.43l-1.94,20.53,5.4,3.29c.59,.36,1.34,.36,1.93,0l5.4-3.29-1.94-20.53h-8.85Z" fill="#8598ab" id="as"/>
<path d="M29.59,31.43l-2.13,1.22-1.83,19.31,2.69,1.64c1.22-6.34,2.45-12.67,3.67-19.01l2.98,15.42,.69,3.59,2.69-1.64-1.83-19.31-2.13-1.22h-4.82Z" fill="#758797" id="at"/>
<path d="M47.7,24.49l-7.8,.8-5.5,6.14,5.5,7.51,16.43,5.08c.04-.28,0-.57-.11-.82-2.86-6.23-5.7-12.47-8.53-18.71Z" fill="#d7e5eb" id="au"/>
<path d="M45.07,18.66l-14.41,4.56,1.35,8.21h2.4l13.29-6.95c-.88-1.94-1.75-3.88-2.63-5.82h0Z" fill="#f0f4f6" id="av"/>
<path d="M32,5c-.37,0-.74,.04-1.1,.12l-4.21,.92c-.68,.15-1.23,.66-1.43,1.32l-.82,2.73,7.56,2.5,7.56-2.5-.82-2.73c-.2-.67-.75-1.17-1.43-1.32l-4.21-.92c-.36-.08-.73-.12-1.1-.12Z" fill="#9dacb9" id="aw"/>
<path d="M39.56,10.1h-7.56l-2.71,7.26,2.71,8.14,13.06-6.82c-1.14-2.51-2.27-5.02-3.41-7.54-.26-.57-.97-1.03-1.59-1.03h-.5Z" fill="#ffa6c5" id="ax"/>
<path d="M16.3,24.49l7.8,.8,5.5,6.14-5.5,7.51-16.43,5.08c-.04-.28,0-.57,.11-.82,2.86-6.23,5.7-12.47,8.53-18.71Z" fill="#d7e5eb" id="ay"/>
<path d="M18.94,18.66c-.88,1.94-1.75,3.88-2.63,5.82l13.29,6.95h2.4v-5.95l-3.79-5.37-9.28-1.46Z" fill="#e2eef2" id="b`"/>
<path d="M32,25.49l-13.06-6.82c1.14-2.51,2.27-5.02,3.41-7.54,.26-.57,.97-1.03,1.59-1.03h8.06v15.39Z" fill="#fd91ba" id="ba"/>
<path d="M7.67,44.02l21.93-12.58-3.97,20.53-1.26,6.52c-.09,.49-.68,.68-1.05,.35l-15.18-13.85c-.26-.24-.42-.6-.47-.97h0Z" fill="#e2eef2" id="bb"/>
<path d="M7.67,44.02l17.85-14.71,4.08,2.13L7.67,44.02Z" fill="#c0d8df" id="bc"/>
<path d="M56.33,44.02l-21.93-12.58,3.97,20.53,1.26,6.52c.09,.49,.68,.68,1.05,.35l15.18-13.85c.26-.24,.42-.6,.47-.97h0Z" fill="#e2eef2" id="bd"/>
<path d="M56.33,44.02l-17.85-14.71-4.08,2.13,21.93,12.58Z" fill="#c0d8df" id="be"/>
<path d="M57.13,42.78c-5.14-11.17-10.21-22.41-14.56-32.07-.38-.85-1.32-1.5-2.26-1.6l-.61-2.03c-.3-1.02-1.14-1.79-2.17-2.01l-4.21-.92c-.86-.19-1.77-.19-2.64,0l-4.21,.92c-1.04,.23-1.87,1-2.17,2.01l-.61,2.03c-.94,.1-1.88,.76-2.26,1.61-4.24,9.47-8.63,19.06-12.87,28.34l-1.7,3.72c-.44,.96-.18,2.23,.6,2.94l15.18,13.85c.32,.29,.74,.45,1.18,.43,.44-.02,.84-.21,1.13-.53,.2-.22,.34-.49,.4-.79l.99-5.11,4.17,2.54c.92,.56,2.05,.56,2.97,0l4.17-2.54,.99,5.11c.15,.78,.84,1.32,1.6,1.32,.1,0,.21,0,.31-.03,.3-.06,.57-.19,.79-.4l15.18-13.85c.78-.71,1.04-1.98,.6-2.94Zm-9.91-16.91c2.35,5.19,4.79,10.55,7.27,15.94l-18-10.33,10.74-5.61Zm-13.07,4.57h-1.15v-4.34l11.58-6.05c.59,1.31,1.2,2.66,1.81,4l-12.24,6.39Zm5.91-19.34c.23,0,.59,.23,.68,.44,.97,2.15,1.98,4.4,3.01,6.68l-10.76,5.62V11.1h7.06Zm-13.17-4.08l4.21-.92c.58-.13,1.2-.13,1.78,0l4.21,.92c.33,.07,.59,.31,.68,.63l.43,1.44h-12.44l.43-1.44c.1-.32,.36-.56,.68-.63Zm-3.64,4.52c.09-.21,.45-.44,.68-.44h7.06v12.74l-10.76-5.62c1.01-2.23,2.02-4.46,3.02-6.68Zm7.74,14.56v4.34h-1.15l-12.24-6.39c.61-1.33,1.2-2.66,1.81-4l11.59,6.05Zm-14.22-.23l10.74,5.61-18.01,10.33,.88-1.92c2.11-4.61,4.25-9.31,6.4-14.03Zm6.73,31.79l-14.52-13.25,19.21-11.02-4.69,24.27Zm8.93-3.26c-.27,.17-.62,.17-.89,0l-4.81-2.92,3.68-19.04h3.15l3.68,19.04-4.81,2.92Zm8.04,3.26l-4.69-24.27,19.21,11.02-14.52,13.25Z"/>
</g>
<g id="bf"/>
<g id="bg"/>
<g id="bh"/>
<g id="bi"/>
<g id="bj"/>
<g id="bk"/>
</svg>