<?xml version="1.0" ?>
<!-- Uploaded to: SVG Repo, www.svgrepo.com, Generator: SVG Repo Mixer Tools -->
<svg width="800px" height="800px" viewBox="0 0 32 32" enable-background="new 0 0 32 32" version="1.1" xml:space="preserve" xmlns="http://www.w3.org/2000/svg" xmlns:xlink="http://www.w3.org/1999/xlink">
<g id="ball"/>
<g id="wistle"/>
<g id="pitch"/>
<g id="goal"/>
<g id="socks"/>
<g id="shoe"/>
<g id="jersey"/>
<g id="bottle"/>
<g id="shorts"/>
<g id="corner"/>
<g id="winner"/>
<g id="trophy"/>
<g id="substitution"/>
<g id="medal_award"/>
<g id="strategy"/>
<g id="card"/>
<g id="gloves"/>
<g id="stadium"/>
<g id="keeper"/>
<g id="time"/>
<g id="horns"/>
<g id="flag"/>
<g id="referee"/>
<g id="player"/>
<g id="injury"/>
<g id="supporter"/>
<g id="coach"/>
<g id="cone"/>
<g id="captain"/>
<g id="match"/>
<g id="score"/>
<g id="celender"/>
<g id="grass">
<path d="M30,27H2c-0.495,0-0.914-0.362-0.988-0.851c-0.074-0.489,0.221-0.959,0.694-1.105   c0.054-0.017,5.424-1.72,6.521-5.557c0.512-1.79,0.021-3.826-1.46-6.073c-0.481-0.625-1.001-1.302-1.562-2.038   c-0.327-0.43-0.254-1.042,0.165-1.382c0.418-0.34,1.033-0.288,1.387,0.121c0.612,0.707,1.147,1.403,1.606,2.089   c1.698,2.194,3.365,4.293,4.455,5.592c0.273-2.829,0.05-8.623-4.649-15.216C7.914,2.224,7.921,1.744,8.185,1.395   C8.451,1.047,8.914,0.912,9.323,1.06C9.442,1.103,19.46,4.861,20.782,14.5c1.941-3.252,5.055-6.103,9.403-5.286   c0.358,0.068,0.652,0.325,0.765,0.672c0.113,0.347,0.029,0.728-0.22,0.994c-0.054,0.057-5.327,5.756-4.367,10.174   c0.379,1.748,1.694,3.063,4.018,4.02c0.441,0.182,0.693,0.65,0.6,1.119C30.888,26.663,30.477,27,30,27z M6.25,25h20.216   c-1.075-0.986-1.765-2.164-2.06-3.525c-0.832-3.841,1.809-8.086,3.522-10.345c-5.228,0.757-7.345,8.967-7.368,9.059   c-0.132,0.526-0.661,0.849-1.188,0.733c-0.529-0.118-0.868-0.636-0.764-1.168c1.621-8.267-3.348-12.983-6.847-15.211   c4.76,8.671,2.749,15.375,2.651,15.688c-0.085,0.271-0.281,0.492-0.539,0.61c-0.258,0.117-0.554,0.12-0.813,0.007   c-0.17-0.074-0.522-0.227-2.636-2.803c0.002,0.683-0.091,1.35-0.278,2.001C9.506,22.275,7.868,23.893,6.25,25z" fill="#FF911C"/>
<path d="M30,31h-8c-0.552,0-1-0.448-1-1s0.448-1,1-1h8c0.552,0,1,0.448,1,1S30.552,31,30,31z M20,30   c0-0.552-0.448-1-1-1h-2c-0.552,0-1,0.448-1,1s0.448,1,1,1h2C19.552,31,20,30.552,20,30z M15,30c0-0.552-0.448-1-1-1H2   c-0.552,0-1,0.448-1,1s0.448,1,1,1h12C14.552,31,15,30.552,15,30z" fill="#FFCC2F"/>
</g>
<g id="game"/>
<g id="subsitutions"/>
<g id="bench"/>
</svg>