<?xml version="1.0" encoding="iso-8859-1"?>
<!-- Uploaded to: SVG Repo, www.svgrepo.com, Generator: SVG Repo Mixer Tools -->
<svg height="800px" width="800px" version="1.1" id="Layer_1" xmlns="http://www.w3.org/2000/svg" xmlns:xlink="http://www.w3.org/1999/xlink" 
	 viewBox="0 0 512 512" xml:space="preserve">
<g>
	<path style="fill:#F7D04A;" d="M228.439,28.818c-24.18,7.13-39.519,22.86-51.533,35.182c-14.443,14.814-23.983,24.6-44.933,24.6
		c-20.949,0-30.49-9.785-44.934-24.6c-10.48-10.749-23.494-24.085-42.694-32.05l-8.833,9.922v381.615l8.833,15.953
		c2.732,2.608,5.528,5.473,8.539,8.561c16.048,16.459,38.026,39.002,79.089,39.002s63.041-22.543,79.089-39.002
		c6.271-6.432,11.619-11.915,17.377-16.062l0,0l6.36-8.452V41.872L228.439,28.818z"/>
	<path style="fill:#F7D04A;" d="M476.489,46.112l-7.42-14.729c-19.976,7.886-33.374,21.607-44.108,32.616l-0.002,0.002
		C410.515,78.814,400.972,88.6,380.023,88.6c-20.951,0-30.492-9.786-44.936-24.601c-11.834-12.137-26.905-27.573-50.464-34.847
		l-7.42,12.719v381.615l7.42,9.238l-0.001-0.001c5.358,4.044,10.429,9.244,16.312,15.277c16.048,16.459,38.027,39.001,79.09,39.001
		c41.064,0,63.043-22.542,79.091-39.001c3.532-3.622,6.77-6.942,9.955-9.893l7.42-14.62L476.489,46.112L476.489,46.112z"/>
</g>
<g>
	<path style="fill:#FEE7BE;" d="M504.05,24.998c-13.597,0-25.091,2.48-34.981,6.385v406.724c9.837-9.12,19.154-14.707,34.981-14.707
		c4.391,0,7.95-3.56,7.95-7.95V32.948C512,28.558,508.44,24.998,504.05,24.998z"/>
	<path style="fill:#FEE7BE;" d="M255.995,24.998c-10.323,0-19.437,1.427-27.556,3.82v403.119c7.503-5.403,15.703-8.539,27.556-8.539
		c12.418,0,20.828,3.439,28.626,9.325V29.152C276.232,26.563,266.777,24.998,255.995,24.998z"/>
</g>
<path style="fill:#F3B41B;" d="M131.973,88.6c-5.678,0-10.512-0.724-14.838-2.067v399.418c4.654,0.677,9.588,1.051,14.838,1.051
	c7.295,0,13.979-0.723,20.143-1.985V84.472C146.48,87.128,140.082,88.6,131.973,88.6z"/>
<path style="fill:#FEE7BE;" d="M7.95,24.998c-4.391,0-7.95,3.56-7.95,7.95v382.501c0,4.391,3.56,7.95,7.95,7.95
	c16.395,0,25.802,5.995,36.041,15.701V31.797C33.868,27.65,22.032,24.998,7.95,24.998z"/>
<path style="fill:#F3B41B;" d="M380.023,88.6c-6.621,0-12.101-0.979-16.959-2.785v399.796c5.269,0.889,10.9,1.391,16.959,1.391
	c5.655,0,10.938-0.441,15.903-1.221V86.187C391.33,87.752,386.17,88.6,380.023,88.6z"/>
<path style="fill:#EB6836;" d="M504.05,375.698c-41.063,0-63.042,22.542-79.09,39.001l-0.002,0.002
	c-14.443,14.813-23.986,24.599-44.935,24.599c-20.951,0-30.492-9.786-44.936-24.601c-16.049-16.459-38.028-39.001-79.091-39.001
	s-63.041,22.543-79.089,39.002c-14.443,14.814-23.983,24.6-44.933,24.6c-20.949,0-30.49-9.785-44.934-24.6
	c-16.048-16.459-38.026-39.002-79.09-39.002c-4.391,0-7.95,3.56-7.95,7.95v31.801c0,4.391,3.56,7.95,7.95,7.95
	c20.949,0,30.49,9.785,44.934,24.6c16.048,16.459,38.026,39.002,79.089,39.002s63.041-22.543,79.089-39.002
	c14.443-14.814,23.983-24.6,44.933-24.6s30.492,9.786,44.937,24.601c16.048,16.459,38.027,39.001,79.09,39.001
	c41.064,0,63.043-22.542,79.091-39.001c14.444-14.814,23.986-24.601,44.936-24.601c4.391,0,7.95-3.56,7.95-7.95v-31.801
	C512,379.257,508.44,375.698,504.05,375.698z"/>
</svg>