<?xml version="1.0" encoding="iso-8859-1"?>
<!-- Uploaded to: SVG Repo, www.svgrepo.com, Generator: SVG Repo Mixer Tools -->
<svg version="1.1" id="Layer_1" xmlns="http://www.w3.org/2000/svg" xmlns:xlink="http://www.w3.org/1999/xlink" 
	 viewBox="0 0 512 512" xml:space="preserve">
<path style="fill:#E0DDDF;" d="M476.612,117.826l-18.429-18.429c-11.643-11.644-30.589-11.644-42.232,0L253.169,262.181
	c-3.181,3.181-3.181,8.337,0,11.517l49.142,49.142c1.59,1.59,3.675,2.386,5.759,2.386s4.169-0.795,5.759-2.386l162.783-162.783
	C488.255,148.414,488.255,129.469,476.612,117.826z"/>
<path style="fill:#C1BCBF;" d="M476.612,117.826l-18.429-18.429c-3.21-3.211-6.978-5.532-10.993-6.971l12.919,12.919
	c11.643,11.643,11.643,30.588,0,42.232L297.327,310.36c-1.432,1.433-3.266,2.214-5.141,2.356l10.125,10.125
	c1.59,1.59,3.675,2.386,5.759,2.386s4.169-0.795,5.759-2.386l162.783-162.783C488.255,148.414,488.255,129.469,476.612,117.826z"/>
<path style="fill:#FF675C;" d="M364.59,424.585H147.41c-4.498,0-8.144,4.382-8.144,9.785v67.845c0,5.405,3.646,9.785,8.144,9.785
	H364.59c4.498,0,8.144-4.38,8.144-9.785V434.37C372.734,428.967,369.087,424.585,364.59,424.585z"/>
<path style="fill:#DB3D5A;" d="M372.734,434.37c0-5.405-3.646-9.785-8.144-9.785H147.41c-4.498,0-8.144,4.38-8.144,9.785v51.749
	h233.468V434.37z"/>
<path style="fill:#FF675C;" d="M484.858,239.703c-1.431-1.449-3.383-2.263-5.419-2.263H32.561c-4.686,0.448-7.226,3.018-7.618,7.709
	c0.724,61.141,25.08,118.507,68.58,161.529c43.535,43.059,101.238,66.773,162.477,66.773s118.943-23.714,162.478-66.773
	c43.5-43.022,67.854-100.388,68.58-161.529C486.325,243.333,485.592,241.517,484.858,239.703
	C483.428,238.254,486.29,241.15,484.858,239.703z"/>
<path style="fill:#DB3D5A;" d="M487.058,245.148c-0.905-5.113-3.505-7.683-7.802-7.709H68.157H32.744
	c-4.296,0.026-6.897,2.595-7.801,7.709c0.146,12.255,1.262,24.511,3.327,36.591c8.064,47.193,30.563,90.629,65.252,124.938
	c43.536,43.06,101.239,66.774,162.478,66.774c5.97,0,11.906-0.232,17.799-0.679c-54.555-4.135-105.388-27.232-144.68-66.094
	c-31.841-31.491-53.41-70.671-62.975-113.388c-0.759-3.39,1.835-6.612,5.309-6.612h411.381
	C485.454,273.119,486.891,259.236,487.058,245.148C487.011,249.058,487.011,249.058,487.058,245.148
	C487.094,242.14,486.891,259.236,487.058,245.148z"/>
<path style="fill:#FF675C;" d="M495.44,277.989H16.56c-4.498,0-8.144-3.646-8.144-8.144v-35.835c0-4.498,3.646-8.144,8.144-8.144
	h478.88c4.498,0,8.144,3.646,8.144,8.144v35.835C503.584,274.343,499.938,277.989,495.44,277.989z"/>
<rect x="324.411" y="225.866" style="fill:#FFB3AD;" width="71.669" height="52.123"/>
<path style="fill:#DB3D5A;" d="M325.497,301.879c-16.792,0-30.405,13.613-30.405,30.405c0,5.437,1.434,10.536,3.934,14.953
	l-28.074,28.074c-4.416-2.5-9.516-3.934-14.953-3.934s-10.536,1.435-14.953,3.934l-28.074-28.074
	c2.5-4.416,3.934-9.516,3.934-14.953c0-16.792-13.613-30.405-30.405-30.405s-30.405,13.613-30.405,30.405
	c0,16.792,13.613,30.405,30.405,30.405c5.437,0,10.536-1.434,14.953-3.934l28.074,28.074c-2.5,4.416-3.934,9.516-3.934,14.953
	c0,16.792,13.613,30.405,30.405,30.405s30.405-13.613,30.405-30.405c0-5.437-1.434-10.536-3.934-14.953l28.074-28.074
	c4.416,2.5,9.516,3.934,14.953,3.934c16.792,0,30.405-13.613,30.405-30.405C355.902,315.492,342.29,301.879,325.497,301.879z"/>
<path style="fill:#5CC4E0;" d="M298.893,163.97c-23.651,0-42.893-19.242-42.893-42.893s19.242-42.893,42.893-42.893
	s42.893,19.242,42.893,42.893S322.544,163.97,298.893,163.97z"/>
<path style="fill:#439EE8;" d="M316.267,146.596c-23.651,0-42.893-19.242-42.893-42.893c0-7.366,1.868-14.303,5.153-20.366
	C265.124,90.6,256,104.792,256,121.077c0,23.651,19.242,42.893,42.893,42.893c16.285,0,30.478-9.124,37.74-22.527
	C330.571,144.728,323.633,146.596,316.267,146.596z"/>
<path style="fill:#5CC4E0;" d="M182.702,85.786c-23.651,0-42.893-19.242-42.893-42.893S159.051,0,182.702,0
	s42.893,19.242,42.893,42.893S206.353,85.786,182.702,85.786z"/>
<path style="fill:#439EE8;" d="M201.162,69.497c-23.651,0-42.893-19.242-42.893-42.893c0-8.315,2.386-16.08,6.498-22.66
	c-14.717,6.804-24.958,21.698-24.958,38.949c0,23.651,19.242,42.893,42.893,42.893c15.336,0,28.811-8.095,36.395-20.232
	C213.636,68.078,207.564,69.497,201.162,69.497z"/>
<path style="fill:#5CC4E0;" d="M64.339,169.4c-23.651,0-42.893-19.242-42.893-42.893s19.242-42.893,42.893-42.893
	s42.893,19.242,42.893,42.893S87.99,169.4,64.339,169.4z"/>
<path style="fill:#439EE8;" d="M80.085,153.654c-23.651,0-42.893-19.242-42.893-42.893c0-7.791,2.099-15.098,5.745-21.402
	c-12.832,7.422-21.491,21.288-21.491,37.147c0,23.651,19.242,42.893,42.893,42.893c15.86,0,29.725-8.659,37.147-21.491
	C95.183,151.555,87.876,153.654,80.085,153.654z"/>
</svg>