<?xml version="1.0" encoding="utf-8"?><!-- Uploaded to: SVG Repo, www.svgrepo.com, Generator: SVG Repo Mixer Tools -->
<svg fill="#000000" width="800px" height="800px" viewBox="0 0 24 24" id="fighter-jet-left" data-name="Flat Color" xmlns="http://www.w3.org/2000/svg" class="icon flat-color"><path id="primary" d="M3.73,15.23,2.29,13.79a1,1,0,1,1,1.42-1.42l1.44,1.44a1,1,0,0,1,0,1.42,1,1,0,0,1-1.42,0ZM14.52,5.44a1,1,0,0,0,.71-.29,1,1,0,0,0,0-1.42L13.79,2.29a1,1,0,1,0-1.42,1.42l1.44,1.44A1,1,0,0,0,14.52,5.44Z" style="fill: rgb(0, 0, 0);"></path><path id="secondary" d="M3,15.77l2-5.89a1,1,0,0,1,.72-.65,1,1,0,0,1,.94.26l4.32,4.32a1,1,0,0,1,0,1.42L6.59,19.55a1,1,0,0,1-1.42,0L3.46,17.83A2,2,0,0,1,3,15.77ZM9.49,6.59l4.32,4.32a1,1,0,0,0,1.42,0l4.32-4.32a1.05,1.05,0,0,0,.29-.71,1,1,0,0,0-.29-.71L17.83,3.46A2,2,0,0,0,15.77,3l-5.89,2a1,1,0,0,0-.65.72A1,1,0,0,0,9.49,6.59Z" style="fill: rgb(44, 169, 188);"></path><path id="primary-2" data-name="primary" d="M4.44,2.42a8.91,8.91,0,0,1,6.34,2.63l4.64,4.63a3.48,3.48,0,0,0,3.59.85,2,2,0,0,1,2.06.49l.64.63a1,1,0,0,1,0,1.42l-8.64,8.64a1,1,0,0,1-1.42,0L11,21.07A2,2,0,0,1,10.53,19a3.48,3.48,0,0,0-.85-3.59L5.05,10.78A8.91,8.91,0,0,1,2.42,4.44,2,2,0,0,1,4.44,2.42Z" style="fill: rgb(0, 0, 0);"></path></svg>