<?xml version="1.0" encoding="iso-8859-1"?>
<!-- Uploaded to: SVG Repo, www.svgrepo.com, Generator: SVG Repo Mixer Tools -->
<svg height="800px" width="800px" version="1.1" id="Layer_1" xmlns="http://www.w3.org/2000/svg" xmlns:xlink="http://www.w3.org/1999/xlink" 
	 viewBox="0 0 511.672 511.672" xml:space="preserve">
<path style="fill:#A0D468;" d="M319.795,137.724V21.315H213.199v116.409c-56.097,21.455-85.281,75.78-85.281,139.427v135.475v56.401
	v31.979c0,5.887,4.771,10.665,10.657,10.665h255.829c5.902,0,10.68-4.778,10.68-10.665v-31.979v-56.401V277.15
	C405.084,213.504,375.885,159.179,319.795,137.724z"/>
<path style="fill:#ED5564;" d="M127.918,277.15v135.476v13.757h277.166v-13.757V277.15c0-14.818-1.592-29.122-4.73-42.645h-267.72
	C129.503,248.028,127.918,262.332,127.918,277.15z"/>
<g style="opacity:0.1;">
	<path d="M149.24,501.007v-31.979v-56.402V277.15c0-63.646,29.177-117.972,85.273-139.427V21.315h-21.314v116.409
		c-56.097,21.455-85.281,75.78-85.281,139.427v135.475v56.401v31.979c0,5.887,4.771,10.665,10.657,10.665h21.322
		C154.011,511.672,149.24,506.894,149.24,501.007z"/>
</g>
<g>
	<path style="fill:#E6E9ED;" d="M330.444,298.465h-127.91c-5.887,0-10.657,4.778-10.657,10.665s4.771,10.665,10.657,10.665h127.91
		c5.903,0,10.681-4.778,10.681-10.665S336.348,298.465,330.444,298.465z"/>
	<path style="fill:#E6E9ED;" d="M298.465,341.109h-63.951c-5.887,0-10.657,4.778-10.657,10.665s4.771,10.649,10.657,10.649h63.951
		c5.902,0,10.681-4.763,10.681-10.649S304.367,341.109,298.465,341.109z"/>
</g>
<path style="fill:#434A54;" d="M511.672,10.649C511.672,4.762,506.895,0,501.024,0c-2.951,0-5.622,1.187-7.559,3.123l0,0
	L3.123,493.465l0,0C1.194,495.402,0,498.071,0,501.007c0,5.887,4.77,10.665,10.657,10.665c2.943,0,5.613-1.202,7.542-3.123l0,0
	l490.35-490.357l0,0C510.485,16.271,511.672,13.601,511.672,10.649z"/>
<path style="fill:#8CC153;" d="M319.795,0H213.199c-5.863,0-10.665,4.793-10.665,10.649v42.645c0,5.871,4.802,10.665,10.665,10.665
	h106.596c5.871,0,10.649-4.794,10.649-10.665V10.649C330.444,4.794,325.666,0,319.795,0z"/>
</svg>