<?xml version="1.0" encoding="utf-8"?>
<!-- Svg Vector Icons : http://www.onlinewebfonts.com/icon -->
<!DOCTYPE svg PUBLIC "-//W3C//DTD SVG 1.1//EN" "http://www.w3.org/Graphics/SVG/1.1/DTD/svg11.dtd">
<svg version="1.1" xmlns="http://www.w3.org/2000/svg" xmlns:xlink="http://www.w3.org/1999/xlink" x="0px" y="0px" viewBox="0 0 256 256" enable-background="new 0 0 256 256" xml:space="preserve">
<metadata> Svg Vector Icons : http://www.onlinewebfonts.com/icon </metadata>
<g> <path fill="#9b9b9b" d="M238.9,127.2l-7.7-5.6v43.6h7.7V127.2z M213,173.7c-0.9,2.2-1.9,4.4-3,6.5l36.1-2v-4.4H213z M121.3,173.7 H93.7l-3.3,6.9H47.5l4.4-7.7H33.4L10,202.1l0.1,6.6h21.5l2.1-3.7h44.9l-1.5,3.2l23.9,0.4l6-22.6l20.4-1.2 C124.9,181.4,122.8,177.7,121.3,173.7z M83,195.9H38.8l3.6-6.3h43.7L83,195.9z M198.5,98.1v20c13.8,11.4,20.3,29.5,16.9,47.1l8.9,0 v-48.5L198.5,98.1z M156.7,70.5v37.4c11.9-2.6,24.3-0.6,34.9,5.5V93.2L155,66.8l1.2,2.6L156.7,70.5L156.7,70.5z M118,156 c0-21.1,13.3-39,31.9-46V72.9L143,58.1l-36.7-26.4H31.6l-1.8,3.1l-11.7,20L16.9,57v108h101.9C118.3,162,118,159,118,156L118,156z  M28.9,62l8.6-14.8h62.7l7.8,13.7v45H28.9V62z M35.5,143c-4.6,0-8.2-4.8-8.2-10.6c0-5.9,3.7-10.6,8.2-10.6c4.6,0,8.3,4.8,8.3,10.6 C43.8,138.2,40.1,143,35.5,143z M100.3,143c-4.6,0-8.2-4.8-8.2-10.6c0-5.9,3.7-10.6,8.2-10.6c4.5,0,8.2,4.8,8.2,10.6 C108.5,138.2,104.8,143,100.3,143z"/> <path fill="#e03346" d="M232.9,207.2L213,187.3c-2.4-2.4-6.2-3-9.2-1.4l-3.7-3.7c5.9-7.4,9.1-16.6,9.1-26.1 c0.1-23.3-18.8-42.2-42.1-42.3c-23.3,0-42.2,19-42.1,42.3v0c0,23.3,18.8,42.2,42.1,42.2c9.9,0,18.9-3.4,26-9.1l3.7,3.7 c-1.6,3-1.1,6.8,1.4,9.3l19.8,19.9c3.1,3.1,8,3.1,11.1,0c0,0,0,0,0,0l3.7-3.7C235.9,215.2,235.9,210.2,232.9,207.2L232.9,207.2z  M167.1,185.5c-16.3,0-29.5-13.2-29.5-29.5c0-16.4,13.2-29.6,29.5-29.6c16.3,0,29.5,13.2,29.5,29.6 C196.6,172.3,183.4,185.5,167.1,185.5z"/></g>
</svg>