<?xml version="1.0" encoding="iso-8859-1"?>
<!-- Uploaded to: SVG Repo, www.svgrepo.com, Generator: SVG Repo Mixer Tools -->
<svg xmlns="http://www.w3.org/2000/svg" xmlns:xlink="http://www.w3.org/1999/xlink" version="1.1" id="Layer_1"  viewBox="0 0 402.536 402.536" xml:space="preserve" width="512" height="512">
<g>
	<path style="fill:#F95428;" d="M201.271,93.547l48,242.74l-179.89-31.67l19.01-163.79c3.13-26.95,25.96-47.28,53.09-47.28H201.271z   "/>
	<path style="fill:#E54728;" d="M187.979,93.547h-46.498c-27.13,0-49.96,20.33-53.09,47.28l-19.01,163.79h65.508V147.194   c0-15.894,6.753-31.212,18.991-41.355C163.175,98.134,175.092,93.547,187.979,93.547z"/>
	<path style="fill:#4288BC;" d="M314.141,140.827l19.01,163.79h-131.88V93.547h59.79   C288.191,93.547,311.011,113.877,314.141,140.827z"/>
	<g>
		<g>
			<path style="fill:#4288BC;" d="M261.977,50.98c-3.59,0-6.5-2.91-6.5-6.5V6.5c0-3.59,2.91-6.5,6.5-6.5s6.5,2.91,6.5,6.5v37.98     C268.477,48.07,265.567,50.98,261.977,50.98z"/>
			<path style="fill:#4288BC;" d="M330.01,79.467c-1.663,0-3.327-0.635-4.596-1.904c-2.539-2.539-2.539-6.654-0.001-9.192     l26.855-26.856c2.539-2.538,6.655-2.538,9.192,0c2.539,2.539,2.539,6.654,0.001,9.192l-26.855,26.856     C333.337,78.833,331.673,79.467,330.01,79.467z"/>
			<path style="fill:#4288BC;" d="M395.953,147.717h-37.98c-3.59,0-6.5-2.91-6.5-6.5s2.91-6.5,6.5-6.5h37.98     c3.59,0,6.5,2.91,6.5,6.5S399.542,147.717,395.953,147.717z"/>
		</g>
		<g>
			<path style="fill:#F95428;" d="M141.3,50.98c-3.59,0-6.5-2.91-6.5-6.5V6.5c0-3.59,2.91-6.5,6.5-6.5s6.5,2.91,6.5,6.5v37.98     C147.8,48.07,144.89,50.98,141.3,50.98z"/>
			<path style="fill:#F95428;" d="M73.05,78.943c-1.664,0-3.327-0.634-4.597-1.904L41.598,50.183     c-2.538-2.539-2.538-6.654,0.001-9.192c2.538-2.539,6.654-2.539,9.192,0l26.855,26.856c2.538,2.539,2.538,6.654-0.001,9.192     C76.377,78.308,74.713,78.943,73.05,78.943z"/>
			<path style="fill:#F95428;" d="M44.563,146.976H6.583c-3.59,0-6.5-2.91-6.5-6.5s2.91-6.5,6.5-6.5h37.979c3.59,0,6.5,2.91,6.5,6.5     S48.153,146.976,44.563,146.976z"/>
		</g>
	</g>
	<path style="fill:#CCCCCC;" d="M327.442,303.115H75.094c-13.081,0-23.685,10.604-23.685,23.685v21.88h299.719v-21.88   C351.128,313.72,340.523,303.115,327.442,303.115z"/>
	<path style="fill:#B3B3B3;" d="M135.524,303.115h-60.43c-13.081,0-23.685,10.604-23.685,23.685v21.879h60.43v-21.879   C111.838,313.72,122.443,303.115,135.524,303.115z"/>
	<path style="fill:#999999;" d="M351.687,347.18H50.849c-9.475,0-17.157,7.681-17.157,17.157v38.199h335.152v-38.199   C368.844,354.862,361.162,347.18,351.687,347.18z"/>
	<path style="fill:#808080;" d="M122.845,347.18H50.849c-9.475,0-17.157,7.681-17.157,17.157v38.199h71.997v-38.199   C105.689,354.862,113.37,347.18,122.845,347.18z"/>
</g>















</svg>