<?xml version="1.0" encoding="iso-8859-1"?>
<!-- Uploaded to: SVG Repo, www.svgrepo.com, Generator: SVG Repo Mixer Tools -->
<svg version="1.1" id="Layer_1" xmlns="http://www.w3.org/2000/svg" xmlns:xlink="http://www.w3.org/1999/xlink" 
	 viewBox="0 0 512 512" xml:space="preserve">
<rect x="145.241" y="443.037" style="fill:#7C7C7C;" width="31.347" height="68.963"/>
<rect x="335.412" y="443.037" style="fill:#4E4E4E;" width="31.347" height="68.963"/>
<path style="fill:#FF8E00;" d="M393.83,87.771H256l-20.898,188.082L256,463.935h137.83c11.017,0,19.949-8.932,19.949-19.949V107.721
	C413.78,96.703,404.848,87.771,393.83,87.771z"/>
<path style="fill:#FFBA00;" d="M118.17,87.771c-11.017,0-19.949,8.932-19.949,19.949v336.265c0,11.017,8.932,19.949,19.949,19.949
	H256V87.771H118.17z"/>
<rect x="300.91" y="7.848" style="fill:#4E4E4E;" width="31.347" height="79.924"/>
<rect x="179.743" y="7.848" style="fill:#7C7C7C;" width="31.347" height="79.924"/>
<g>
	<rect x="145.659" y="228.833" style="fill:#FDE09C;" width="31.347" height="183.902"/>
	<rect x="208.771" y="228.833" style="fill:#FDE09C;" width="31.347" height="183.902"/>
</g>
<g>
	<rect x="271.882" y="228.833" style="fill:#FFBA00;" width="31.347" height="183.902"/>
	<rect x="334.994" y="228.833" style="fill:#FFBA00;" width="31.347" height="183.902"/>
</g>
<polygon style="fill:#A43700;" points="318.694,140.697 256,140.697 235.102,164.552 256,188.406 318.694,188.406 "/>
<rect x="193.306" y="140.695" style="fill:#DA6A1F;" width="62.694" height="47.709"/>
<polygon style="fill:#7C7C7C;" points="347.86,0 256,0 245.551,15.673 256,31.347 347.86,31.347 "/>
<rect x="164.143" style="fill:#BDBDBD;" width="91.857" height="31.347"/>
</svg>