<?xml version="1.0" encoding="iso-8859-1"?>
<!-- Uploaded to: SVG Repo, www.svgrepo.com, Generator: SVG Repo Mixer Tools -->
<svg height="800px" width="800px" version="1.1" id="Layer_1" xmlns="http://www.w3.org/2000/svg" xmlns:xlink="http://www.w3.org/1999/xlink" 
	 viewBox="0 0 496.3 496.3" xml:space="preserve">
<path style="fill:#48A1AF;" d="M496.25,248.1c0-137-111.1-248.1-248.1-248.1S0.05,111.1,0.05,248.1s111.1,248.1,248.1,248.1
	S496.25,385.1,496.25,248.1z"/>
<g>
	<path style="fill:#2A3F49;" d="M197.75,335.8L197.75,335.8L197.75,335.8z"/>
	<path style="fill:#2A3F49;" d="M311.55,337.4L311.55,337.4L311.55,337.4L311.55,337.4z"/>
	<path style="fill:#2A3F49;" d="M298.55,335.9L298.55,335.9L298.55,335.9z"/>
</g>
<path style="fill:#956C1C;" d="M247.85,333.4c-77.2,0-139.1,22.1-146.4,49.3c-3.3,12.2-7,35.2-10.1,57.5
	c42.7,34.9,97.4,55.9,156.9,55.9s114.1-21,156.9-55.9c-3.2-22.3-6.9-45.4-10.1-57.5C387.55,355.5,324.95,333.4,247.85,333.4z"/>
<g>
	<path style="fill:#755317;" d="M248.15,347.2l113.1-0.1c0,0,11.9-9.6,25.6-19.1l-47.2-12.7c9.1-10.4,43.7-13.7,43.7-13.7
		s-39.3-48-135.3-48v93.6H248.15z"/>
	<path style="fill:#755317;" d="M276.55,493.9c33.1-92,67.8-131,80.1-142.7c-26.8-10.8-65.2-17.7-108.2-17.8l-0.3,162.8
		c9.5,0,18.8-0.5,28-1.6C276.35,494.4,276.55,494.1,276.55,493.9z"/>
	<path style="fill:#755317;" d="M248.15,347.2l-113.1-0.1c0,0-11.9-9.6-25.6-19.1l47.2-12.7c-9.1-10.4-43.7-13.7-43.7-13.7
		s39.3-48,135.3-48v93.6H248.15z"/>
	<path style="fill:#755317;" d="M139.55,351.2c12.2,11.6,47,50.5,80.1,142.7c0.1,0.2,0.3,0.5,0.5,0.7c9.2,1,18.5,1.6,27.9,1.6
		l-0.3-162.8C204.65,333.4,166.35,340.3,139.55,351.2z"/>
</g>
<path style="fill:#E4E9ED;" d="M248.15,496.2c0,0,89.2-193.8-0.4-193.8S248.15,496.2,248.15,496.2z"/>
<path style="fill:#1E2021;" d="M267.05,416c-1.4-15.1-7.7-27.2-11.8-33.5l8.6-14l-15.7-7.9l-15.7,7.9l8.6,14.1
	c-4.1,6.4-10.4,18.5-11.8,33.5c-0.6,7-1.4,16.5-2.1,27.1c10.3,30.1,21,53.1,21,53.1s10.7-23.3,21-53.7
	C268.45,432.1,267.75,422.8,267.05,416z"/>
<path style="fill:#BF8A3D;" d="M248.15,123.1c-92.6,0-157.2,10.2-157.1,10.6c3.8,9.8,38.6,40.4,157.1,40.4s152.4-30.5,157-40.1
	C405.35,133.5,340.75,123.1,248.15,123.1z"/>
<path style="fill:#E2A379;" d="M287.05,282.1h-77.8c12.1,36.6,1,53.3,1,53.3s16.8,28.1,37.6,28.1s38.2-28.1,38.2-28.1
	S274.95,318.7,287.05,282.1z"/>
<path style="fill:#F4B382;" d="M336.45,175.2c0-92.4-39.5-113.6-88.3-113.6c-48.7,0-88.3,21.2-88.3,113.6c0,31.3,6.2,55.8,15.5,74.7
	c20.4,41.6,55.7,56.1,72.8,56.1c17.1,0,52.4-14.5,72.8-56.1C330.25,231,336.45,206.5,336.45,175.2z"/>
<path style="fill:#47200D;" d="M301.85,251.3L301.85,251.3L301.85,251.3c0,0-10.7-26.2-53.7-26.2s-53.7,26.2-53.7,26.2l0,0l0,0
	l5.4,5.4l5.4-5.4l5.4,5.4l5.4-5.4l5.4,5.4l5.2-5.2l0.2-0.1l5.3,5.3l5.2-5.2l0.3-0.1l5.3,5.3l5.4-5.4l5.4,5.4l5.4-5.4l5.4,5.4
	l5.4-5.4l5.4,5.4l5.3-5.3l5.3,5.3l5.4-5.4l5.4,5.4L301.85,251.3z M205.25,251.3L205.25,251.3L205.25,251.3L205.25,251.3
	L205.25,251.3z M215.95,251.3L215.95,251.3L215.95,251.3L215.95,251.3L215.95,251.3z M227.15,251.3L227.15,251.3L227.15,251.3
	L227.15,251.3z M237.95,251.3L237.95,251.3L237.95,251.3L237.95,251.3z M248.25,251.3L248.25,251.3L248.25,251.3L248.25,251.3
	L248.25,251.3z M258.95,251.3L258.95,251.3L258.95,251.3L258.95,251.3L258.95,251.3z M269.75,251.3L269.75,251.3L269.75,251.3
	L269.75,251.3L269.75,251.3z M280.45,251.3L280.45,251.3L280.45,251.3L280.45,251.3L280.45,251.3z M291.15,251.3L291.15,251.3
	L291.15,251.3L291.15,251.3L291.15,251.3z"/>
<g>
	<path style="fill:#F4B382;" d="M170.45,238.7c-8.4,1.4-14.4,0.1-19.1-27.7s1.7-31.5,10.1-32.9L170.45,238.7z"/>
	<path style="fill:#F4B382;" d="M325.95,238.7c8.4,1.4,14.3,0.1,19.1-27.7c4.8-27.8-1.7-31.5-10.1-32.9L325.95,238.7z"/>
</g>
<path style="fill:#47200D;" d="M336.45,175.2c0-92.4-30.3-116.1-88.3-116.1s-88.3,23.7-88.3,116.1l39.8-33.1l94.7-35.3L336.45,175.2
	z"/>
<path style="fill:#D19743;" d="M205.55,40.2c-19.8,0-43.6,74.6-43.6,74.6h172.5c0,0-29.9-74.7-45.9-74.7c-8.4,0-33.1-8.8-41.2-8.7
	C239.95,31.3,214.95,40.2,205.55,40.2z"/>
<path style="fill:#B78139;" d="M334.45,114.8c0,0-3.7-9.3-9.3-21.4c-21.1-2.5-49.3-5.1-77-5.1c-28.7,0-57.7,2.8-78.6,5.4
	c-4.7,11.9-7.6,21.1-7.6,21.1H334.45z"/>
<path style="fill:#47200D;" d="M165.55,140.8c-4.2,10.9-5.6,24.4-5.6,37.5c0,0,8.8-1.9,8.8,2.6l2.8,27.6l3.9-1.9
	c-0.2-23,4.9-68,4.9-68L165.55,140.8z"/>
<path style="fill:#E2A84B;" d="M248.15,102.1c-92.6,0-157.1,32.1-157.1,31.6c0-1.1,83.6,8.4,157.1,8.4s157-8.1,157-8.1
	C405.35,133.5,340.75,102.1,248.15,102.1z"/>
<path style="fill:#47200D;" d="M330.85,140.8c4.2,10.9,5.6,24.4,5.6,37.5c0,0-8.8-1.9-8.8,2.6l-2.8,27.6l-3.9-1.9
	c0.2-23-4.9-66.2-4.9-66.2L330.85,140.8z"/>
<path style="fill:#D4D6D8;" d="M214.35,322.3l-1,0.4c-6.8,14.9-6.4,36.5-2.5,59.4l37.3-19C219.75,363.1,214.35,322.3,214.35,322.3z"
	/>
<g>
	<path style="fill:#563B11;" d="M219.95,422.2c-4-7.7-6.9-15.7-9.4-23.9c-1.2-4.1-2.3-8.2-3.2-12.4c-0.9-4.2-1.7-8.4-2.3-12.7
		c-1.2-8.5-1.7-17.2-1-26c0.4-4.4,0.9-8.8,2.1-13.1c0.6-2.2,1.2-4.3,2-6.4c0.9-2.1,1.8-4.1,3-6.1v2.3c-0.3-0.7-0.7-1.5-1.1-2.2
		c-0.4-0.8-0.8-1.5-1.3-2.3c-0.9-1.5-2-3-3.1-4.4c-2.2-2.8-4.7-5.5-7.6-7.8l0.3-0.4c3.2,1.9,6.1,4.3,8.7,7c1.3,1.3,2.5,2.7,3.7,4.2
		c1.1,1.5,2.2,3,3.1,4.7l0.1,0.2l-0.1,0.2c-1.8,3.8-3,7.8-3.7,12c-0.8,4.1-1.2,8.3-1.3,12.5c-0.3,8.4,0.3,16.8,1.3,25.2
		c1,8.4,2.5,16.7,4.2,24.9c1.8,8.2,3.8,16.5,6.2,24.5L219.95,422.2z"/>
	<path style="fill:#563B11;" d="M276.35,422.2c4-7.7,6.9-15.7,9.4-23.9c1.2-4.1,2.3-8.2,3.2-12.4c0.9-4.2,1.7-8.4,2.3-12.7
		c1.2-8.5,1.7-17.2,1-26c-0.4-4.4-0.9-8.8-2.1-13.1c-0.6-2.2-1.2-4.3-2-6.4c-0.9-2.1-1.8-4.1-3-6.1v2.3c0.3-0.7,0.7-1.5,1.1-2.2
		c0.4-0.8,0.8-1.5,1.3-2.3c0.9-1.5,2-3,3.1-4.4c2.2-2.8,4.7-5.5,7.6-7.8l-0.3-0.4c-3.2,1.9-6.1,4.3-8.7,7c-1.3,1.3-2.5,2.7-3.7,4.2
		c-1.1,1.5-2.2,3-3.1,4.7l-0.1,0.2l0.1,0.2c1.8,3.8,3,7.8,3.7,12c0.8,4.1,1.2,8.3,1.3,12.5c0.3,8.4-0.3,16.8-1.3,25.2
		c-1,8.4-2.5,16.7-4.2,24.9c-1.8,8.2-3.8,16.5-6.2,24.5L276.35,422.2z"/>
</g>
<path style="fill:#D4D6D8;" d="M282.05,322.3l-0.1-0.1c0,0-5.4,40.8-33.8,40.8l36.9,18.8C288.85,358.8,289.15,337.2,282.05,322.3z"
	/>
</svg>