<?xml version="1.0" encoding="iso-8859-1"?>
<!-- Uploaded to: SVG Repo, www.svgrepo.com, Generator: SVG Repo Mixer Tools -->
<svg height="800px" width="800px" version="1.1" id="Layer_1" xmlns="http://www.w3.org/2000/svg" xmlns:xlink="http://www.w3.org/1999/xlink" 
	 viewBox="0 0 512 512" xml:space="preserve">
<path style="fill:#AFD5FF;" d="M229.764,163.505h89.445c48.801,0,64.021,16.079,121.786,64.649
	c8.423,7.085,15.83,14.845,23.313,21.591c40.811,36.757,46.809,38.111,47.59,72.812c0.183,7.854,0.072,25.169,0.022,36.309
	c-0.024,6.331-0.072,13.59-0.072,23.021c0,12.276-11.477,22.412-25.9,23.275l-150.629,0.06h-86.376l-96.317-0.052
	c-10.803-0.595-19.975-6.392-23.945-14.401c-1.358-2.74-2.117-5.741-2.117-8.882V163.505H229.764z"/>
<path style="fill:#95B8C2;" d="M126.565,233.654v-70.15h103.199h89.445c48.801,0,64.021,16.078,121.786,64.648
	c2.139,1.799,4.212,3.642,6.237,5.501H126.565V233.654z"/>
<path style="fill:#5B7F99;" d="M126.565,163.505h96.24c-0.397,59.487-41.233,109.51-96.24,123.691V163.505z"/>
<path style="fill:#DC2C13;" d="M511.899,322.557c0.183,7.854,0.072,25.169,0.022,36.309c-0.024,6.331-0.072,13.59-0.072,23.021
	c0,12.276-11.477,22.412-25.9,23.275l-150.629,0.06h-86.376l-96.317-0.052c-10.803-0.595-19.975-6.392-23.945-14.401
	c-1.358-2.74-2.117-5.742-2.117-8.882V163.505h43.603c29.049,36.132,116.031,134.323,128.904,134.323h209.704
	C510.908,304.229,511.656,311.786,511.899,322.557z"/>
<g>
	<path style="fill:#B21100;" d="M511.893,365.065c-0.022,4.85-0.045,10.311-0.045,16.821c0,12.277-11.477,22.412-25.902,23.276
		l-150.629,0.059h-86.374l-96.317-0.052c-10.803-0.595-19.975-6.392-23.945-14.401c-1.358-2.74-2.117-5.742-2.117-8.882v-16.821
		H511.893z"/>
	<path style="fill:#B21100;" d="M126.565,287.196V163.505h43.603c9.479,11.789,25.125,30.186,42.351,49.622
		C197.009,249.449,165.301,277.21,126.565,287.196z"/>
</g>
<path style="fill:#651100;" d="M216.324,297.826c0,5.554-4.484,10.055-10.017,10.055h-14.574c-5.533,0-10.017-4.502-10.017-10.055
	c0-5.553,4.484-10.055,10.017-10.055h14.574C211.84,287.771,216.324,292.272,216.324,297.826z"/>
<path style="fill:#234556;" d="M248.943,405.223c0,26.696-21.562,48.342-48.161,48.342s-48.161-21.645-48.161-48.342
	c0-26.702,21.562-48.343,48.161-48.343S248.943,378.522,248.943,405.223z M437.781,356.881c-26.594,0-48.156,21.641-48.156,48.343
	c0,26.696,21.562,48.342,48.156,48.342c26.6,0,48.167-21.645,48.167-48.342C485.948,378.522,464.381,356.881,437.781,356.881z"/>
<path style="fill:#95B8C2;" d="M210.816,405.223c0,5.554-4.484,10.055-10.017,10.055s-10.034-4.502-10.034-10.055
	c0-5.553,4.469-10.055,10.001-10.055h0.033C206.332,395.168,210.816,399.669,210.816,405.223z M437.803,395.168h-0.033
	c-5.533,0-10.001,4.502-10.001,10.055c0,5.553,4.501,10.055,10.034,10.055c5.533,0,10.017-4.502,10.017-10.055
	C447.821,399.671,443.336,395.168,437.803,395.168z"/>
<path style="fill:#789EBD;" d="M75.989,338.466H10.017C4.484,338.466,0,333.964,0,328.411c0-5.553,4.484-10.055,10.017-10.055
	h65.971c5.533,0,10.017,4.502,10.017,10.055C86.006,333.964,81.522,338.466,75.989,338.466z M75.989,365.065H46.483
	c-5.533,0-10.017,4.502-10.017,10.055c0,5.554,4.484,10.055,10.017,10.055h29.506c5.533,0,10.017-4.502,10.017-10.055
	C86.006,369.566,81.522,365.065,75.989,365.065z"/>
<path style="fill:#AFD5FF;" d="M180.151,162.63c0,47.289-38.328,85.762-85.437,85.762S9.276,209.919,9.276,162.63
	s38.328-85.762,85.437-85.762C141.823,76.868,180.151,115.34,180.151,162.63z"/>
<path style="fill:#95B8C2;" d="M180.151,162.63c0,47.289-38.327,85.762-85.437,85.762V76.868
	C141.823,76.868,180.151,115.341,180.151,162.63z"/>
<path style="fill:#071C23;" d="M124.949,68.49c0,5.554-4.484,10.055-10.017,10.055H74.493c-5.533,0-10.017-4.502-10.017-10.055
	c0-5.553,4.484-10.055,10.017-10.055h40.439C120.465,58.435,124.949,62.937,124.949,68.49z"/>
<path style="fill:#565656;" d="M104.754,206.931c0,5.554-4.484,10.055-10.017,10.055c-5.533,0-10.042-4.502-10.042-10.055
	c0-5.554,4.46-10.055,9.993-10.055h0.05C100.269,196.876,104.754,201.377,104.754,206.931z"/>
<path style="fill:#234556;" d="M94.712,67.557C42.488,67.557,0,110.207,0,162.63s42.488,95.074,94.712,95.074
	c52.225,0,94.713-42.65,94.713-95.074C189.426,110.207,146.937,67.557,94.712,67.557z M94.712,237.592
	c-41.177,0-74.677-33.628-74.677-74.962s33.5-74.961,74.677-74.961s74.679,33.627,74.679,74.961S135.89,237.592,94.712,237.592z"/>
<path style="fill:#DC2C13;" d="M174.984,76.679l-72.378,93.016c-1.975,2.539-4.923,3.867-7.901,3.867
	c-2.156,0-4.329-0.696-6.16-2.131c-4.36-3.418-5.133-9.738-1.729-14.115l72.378-93.016c3.406-4.375,9.701-5.153,14.061-1.735
	C177.616,65.983,178.389,72.302,174.984,76.679z"/>
</svg>