<?xml version="1.0" encoding="iso-8859-1"?>
<!-- Uploaded to: SVG Repo, www.svgrepo.com, Generator: SVG Repo Mixer Tools -->
<svg version="1.1" id="Layer_1" xmlns="http://www.w3.org/2000/svg" xmlns:xlink="http://www.w3.org/1999/xlink" 
	 viewBox="0 0 511.845 511.845" xml:space="preserve">
<g>
	<path style="fill:#434A54;" d="M364.404,68.23c-2.547-5.312-8.92-7.561-14.23-5.015L321.34,77.039l9.199,19.229l28.852-13.824
		C364.701,79.898,366.95,73.54,364.404,68.23z"/>
	<path style="fill:#434A54;" d="M382.82,106.688c-2.53-5.312-8.903-7.545-14.215-4.999l-28.85,13.824l9.215,19.229l28.852-13.824
		C383.133,118.37,385.383,111.997,382.82,106.688z"/>
	<path style="fill:#434A54;" d="M189.903,280.54h-21.33c0-61.824,28.46-100.516,52.335-122.104
		c25.781-23.305,51.539-31.959,52.632-32.317l6.701,20.243c-0.234,0.078-23.18,7.92-45.658,28.476
		C204.937,201.939,189.903,237.507,189.903,280.54z"/>
</g>
<path style="fill:#FECD57;" d="M321.73,53.202l-28.851,13.824c-26.555,12.715-37.77,44.564-25.047,71.119
	c12.723,26.555,44.572,37.77,71.127,25.039l28.835-13.824L321.73,53.202z"/>
<path style="fill:#656D78;" d="M74.407,298.457c0,0,39.496-74.649,149.525-74.649s149.298,74.696,149.298,74.696
	c127.945,0,127.945,0,127.945,117.245H53.312c-19.689,0.156-42.651-21.087-42.651-21.087v-74.884l21.33-21.321H74.407z"/>
<path style="fill:#4FC2E9;" d="M366.154,287.835c-15.605-20.634-58.357-64.027-142.223-64.027
	c-83.92,0-126.805,43.424-142.433,64.027H366.154z"/>
<rect x="191.942" y="228.322" style="fill:#3BAFDA;" width="21.321" height="59.51"/>
<path style="fill:#656D78;" d="M53.109,426.418c-23.149,0-47.04-21.478-49.688-23.931c-2.179-2.015-3.42-4.842-3.42-7.825v-74.884
	c0-2.827,1.125-5.529,3.124-7.529l21.321-21.336c2-2,4.717-3.125,7.545-3.125h36.458c4.975-7.482,15.479-21.306,32.849-35.021
	c22.884-18.072,62.731-39.613,122.635-39.613c59.903,0,99.688,21.557,122.525,39.645c17.338,13.715,27.804,27.538,32.756,35.036
	c62.684,0.016,94.705,0.531,113.168,17.464c19.463,17.823,19.463,48.782,19.463,110.45c0,5.889-4.779,10.669-10.669,10.669H53.109z
	 M21.321,389.757c7.295,5.857,21.291,15.34,31.787,15.34h0.125c0.031,0,0.055,0,0.078,0h437.194
	c-0.047-46.971-0.844-73.369-12.527-84.084c-12.934-11.855-45.549-11.855-104.749-11.855c-3.952,0-7.591-2.188-9.435-5.701
	c-0.062-0.125-9.528-17.511-31.396-34.584c-29.241-22.821-65.73-34.396-108.467-34.396c-42.753,0-79.281,11.559-108.592,34.38
	C93.408,285.93,83.903,303.3,83.81,303.472c-1.843,3.498-5.459,5.654-9.403,5.654H36.403l-15.082,15.073
	C21.321,324.199,21.321,389.757,21.321,389.757z"/>
<g>
	<path style="fill:#434A54;" d="M117.292,352.019c-29.397,0-53.312,23.915-53.312,53.312c0,29.396,23.915,53.312,53.312,53.312
		c29.405,0,53.32-23.915,53.32-53.312C170.612,375.934,146.697,352.019,117.292,352.019z"/>
	<path style="fill:#434A54;" d="M394.535,352.019c-29.396,0-53.312,23.915-53.312,53.312c0,29.396,23.915,53.312,53.312,53.312
		c29.398,0,53.328-23.915,53.328-53.312C447.863,375.934,423.934,352.019,394.535,352.019z"/>
</g>
<g>
	<path style="fill:#F5F7FA;" d="M106.631,405.331c0,5.889,4.772,10.668,10.661,10.668s10.669-4.779,10.669-10.668
		s-4.78-10.669-10.669-10.669C111.403,394.662,106.631,399.443,106.631,405.331z"/>
	<path style="fill:#F5F7FA;" d="M383.883,405.331c0,5.889,4.779,10.668,10.652,10.668c5.904,0,10.669-4.779,10.669-10.668
		s-4.765-10.669-10.669-10.669C388.662,394.662,383.883,399.443,383.883,405.331z"/>
</g>
<path style="fill:#434A54;" d="M245.261,351.769h-21.329c-5.889,0-10.669-4.764-10.669-10.652s4.78-10.669,10.669-10.669h21.329
	c5.889,0,10.661,4.78,10.661,10.669S251.15,351.769,245.261,351.769z"/>
<path style="fill:#F5F7FA;" d="M508.906,340.773c-1.312-8.139-3.217-15.059-5.998-20.994h-33.864
	c-5.889,0-10.653,4.78-10.653,10.669s4.765,10.669,10.653,10.669h37.239C507.19,341.116,508.064,340.991,508.906,340.773z"/>
<path style="fill:#ED5564;" d="M31.99,287.788c-2.828,0-5.545,1.125-7.545,3.125L3.124,312.249c-2,2-3.124,4.702-3.124,7.529h31.99
	c5.889,0,10.661-4.764,10.661-10.652v-21.338L31.99,287.788L31.99,287.788z"/>
</svg>