<svg class="svg-icon" style="width: 1.123046875em; height: 1em;vertical-align: middle;fill: currentColor;overflow: hidden;" viewBox="0 0 1150 1024" version="1.1" xmlns="http://www.w3.org/2000/svg"><path d="M1113.818375 249.194823C1073.190451 145.708601 996.53399 71.160193 914.894859 54.10413c-138.939835-28.171249-209.463779 24.338426-250.666626 71.865432a210.805267 210.805267 0 0 1-18.014269-55.001011 203.331262 203.331262 0 0 0-11.881751-38.32823l-1.916412-3.641182-4.216105-2.108053C608.460657 0.061325 555.759341-6.262833 522.41378 6.002201A64.583068 64.583068 0 0 0 477.378109 76.717786c9.773699 121.117208 57.492346 226.3282 91.221189 303.176302a697.382152 697.382152 0 0 1 30.279302 75.123332c25.679914 75.698255 2.299694 136.831782-32.387355 164.044826a51.934752 51.934752 0 0 1-64.96635 4.216105c-64.391427-41.777771-138.364912-80.680925-201.414851-55.767575a193.174281 193.174281 0 0 0-182.825659 2.299694 132.424036 132.424036 0 0 0-70.523944 103.677863 97.353705 97.353705 0 0 0-20.505603 29.89602 380.407687 380.407687 0 0 0-5.365952 263.123301c9.390416 35.836895 41.011207 57.492346 84.89703 57.492346a190.108023 190.108023 0 0 0 31.045866-3.449541c42.352695-8.815493 84.322107-36.60346 76.656461-76.656461-6.324158-29.89602-7.857287-42.544336-1.533129-136.4485 0-14.94801 5.557593-41.011207 27.979608-46.185517a41.394489 41.394489 0 0 1 22.038733 1.341488C306.625843 888.318064 433.109003 982.797152 582.397461 1002.536191c175.543295 23.188579 344.954073-57.492346 453.039683-213.871526 117.092744-169.027496 146.41384-371.01727 78.381231-539.469842zM148.521893 947.53518a88.15493 88.15493 0 0 1-49.060135 10.731905c-11.115187-1.916412-12.456675-5.365952-13.798163-8.24057l-1.916412-5.365952a312.566719 312.566719 0 0 1-15.331292-142.389376c5.365952-49.443417 17.056063-76.656461 20.505604-78.956154L114.984691 716.032669 111.918433 689.969472a64.583068 64.583068 0 0 1 38.32823-62.283374 121.308849 121.308849 0 0 1 60.558604-15.714575A121.692131 121.692131 0 0 1 279.987723 632.477127l17.822627 11.306828 18.014268-11.115187c28.937814-17.822627 77.806308-2.682976 149.67174 46.5688a119.200797 119.200797 0 0 0 140.089682-6.899082c52.509676-40.627924 89.8797-129.549419 54.80937-236.676822-6.70744-19.164115-15.522933-38.32823-25.488274-63.049939l-7.090722-16.48114C597.920394 287.523053 552.884723 185.186678 543.111025 71.351834v-3.066259A57.492346 57.492346 0 0 1 574.923456 65.410958a76.656461 76.656461 0 0 1 4.024464 11.881751c0.958206 3.066258 1.916412 6.515799 2.874617 9.390417a229.969382 229.969382 0 0 0 59.025475 114.984691l25.296632 25.296632L689.908147 196.685147a39.286436 39.286436 0 0 1 6.324158-7.282364l1.533129-1.533129c27.596326-36.028537 74.165126-95.820576 204.67275-70.140662 57.492346 12.265034 117.667667 72.823638 151.396511 153.312922 57.492346 148.905175 31.237508 328.472934-73.398562 480.444368C887.873457 887.934782 742.03454 958.267085 591.404595 939.10297c-125.908237-17.247704-231.31087-94.86237-268.297613-196.432181-7.665646-30.662584-43.119259-51.168188-82.597336-47.335365S151.779792 728.297703 146.41384 802.079546c-6.132517 90.837906-5.174311 113.451562 2.108053 145.455634z" fill="#5A89ED" /><path d="M968.937664 571.151958c-19.164115 0-27.213044 20.122321-39.861359 46.952082a282.095776 282.095776 0 0 1-108.277251 131.849113 727.08653 727.08653 0 0 1-139.898041 61.708451c-45.610594 16.289498-76.656461 27.021402-84.513748 43.502541a17.822627 17.822627 0 0 0 2.491335 22.613656 61.900092 61.900092 0 0 0 39.478077 8.815493 504.591153 504.591153 0 0 0 228.052971-68.990815c89.8797-57.492346 131.274189-197.007104 119.392438-233.418923a16.481139 16.481139 0 0 0-16.864422-13.031598zM1008.799024 485.871645c-3.2579-26.63812-14.373086-31.429149-20.697245-31.812431s-18.014268 2.491335-25.679914 28.171249a130.890907 130.890907 0 0 0-3.832823 48.868494c3.2579 26.446479 14.373086 31.237508 20.697244 31.812431h1.341488c6.515799 0 17.247704-4.216105 24.338427-28.171249a131.46583 131.46583 0 0 0 3.832823-48.868494z" fill="#F8B62D" /></svg>