<?xml version="1.0" encoding="iso-8859-1"?>
<!-- Uploaded to: SVG Repo, www.svgrepo.com, Generator: SVG Repo Mixer Tools -->
<svg version="1.1" id="Layer_1" xmlns="http://www.w3.org/2000/svg" xmlns:xlink="http://www.w3.org/1999/xlink" 
	 viewBox="0 0 511.984 511.984" xml:space="preserve">
<rect x="135.522" y="85.332" style="fill:#E9573F;" width="280.46" height="384"/>
<polygon style="fill:#F5F7FA;" points="246.165,89.91 100.325,122.05 107.388,54.958 211.556,31.998 "/>
<polygon style="fill:#4FC2E9;" points="288.711,233.437 122.058,270.18 85.325,103.511 251.977,66.778 "/>
<g>
	<path style="fill:#E6E9ED;" d="M117.184,53.075c1.265,5.758,6.968,9.39,12.718,8.125c5.75-1.273,9.391-6.961,8.109-12.711
		c-0.016-0.094-0.047-0.18-0.062-0.266l-20.812,4.586C117.153,52.904,117.169,52.99,117.184,53.075z"/>
	<path style="fill:#E6E9ED;" d="M138.012,48.49c1.281,5.75,6.969,9.383,12.719,8.117c5.749-1.266,9.39-6.961,8.124-12.711
		c-0.016-0.094-0.047-0.172-0.078-0.266l-20.796,4.586C137.996,48.31,137.996,48.396,138.012,48.49z"/>
	<path style="fill:#E6E9ED;" d="M158.854,43.896c1.266,5.75,6.953,9.383,12.703,8.117c5.766-1.266,9.391-6.961,8.125-12.711
		c-0.016-0.086-0.047-0.172-0.062-0.258l-20.812,4.586C158.823,43.716,158.839,43.802,158.854,43.896z"/>
	<path style="fill:#E6E9ED;" d="M179.682,39.302c1.266,5.75,6.968,9.391,12.718,8.117c5.75-1.266,9.391-6.953,8.109-12.71
		c-0.016-0.086-0.047-0.172-0.062-0.258l-20.812,4.585C179.651,39.122,179.667,39.216,179.682,39.302z"/>
</g>
<path style="fill:#FFCE54;" d="M406.582,206.289c-25.858,102.826-79.248,178.042-119.23,167.98
	c-39.983-10.047-51.437-101.56-25.578-204.4C287.617,67.036,319.991-13.462,381.005,1.882S432.457,103.456,406.582,206.289z"/>
<path d="M347.178,136.362c-1.438,5.71-7.219,9.179-12.938,7.742s-9.188-7.234-7.75-12.945c1.438-5.718,7.25-9.179,12.953-7.742
	C345.146,124.847,348.615,130.643,347.178,136.362z"/>
<g>
	<path style="fill:#F6BB42;" d="M272.523,130.05c9.109,5.336,25.25,11.687,52.623,14.328l2.047-21.233
		c-33.389-3.219-45.701-12.43-48.045-14.453C276.867,115.597,274.68,122.73,272.523,130.05z"/>
	<path style="fill:#F6BB42;" d="M302.742,51.146c-3.203,5.992-6.281,12.414-9.25,19.226c10.077,4.82,27.436,10.031,47.279,11.938
		v-0.008c5.156,0.5,10.062-2.82,11.359-8.008c1.422-5.71-2.031-11.507-7.75-12.945c-0.516-0.132-1.047-0.21-1.578-0.257v-0.016
		C324.021,59.263,309.335,54.271,302.742,51.146z"/>
</g>
<path style="fill:#FC6E51;" d="M458.642,511.984l-21.31-383.989h-0.031c0-5.891-4.766-10.664-10.656-10.664
	s-10.672,4.773-10.672,10.664c0-5.891-4.766-10.664-10.672-10.664c-5.875,0-10.656,4.773-10.656,10.664
	c0-5.891-4.781-10.664-10.671-10.664c-5.891,0-10.672,4.773-10.672,10.664c0-5.891-4.765-10.664-10.655-10.664
	s-10.672,4.773-10.672,10.664c0-5.891-4.766-10.664-10.672-10.664c-5.875,0-10.656,4.773-10.656,10.664
	c0-5.891-4.781-10.664-10.671-10.664c-5.891,0-10.672,4.773-10.672,10.664c0-5.891-4.766-10.664-10.655-10.664
	c-5.891,0-10.672,4.773-10.672,10.664c0-5.891-4.766-10.664-10.672-10.664c-5.875,0-10.656,4.773-10.656,10.664
	c0-5.891-4.781-10.664-10.672-10.664c-5.89,0-10.655,4.773-10.655,10.664c0-5.891-4.781-10.664-10.672-10.664
	s-10.672,4.773-10.672,10.664c0-5.891-4.766-10.664-10.655-10.664c-5.891,0-10.672,4.773-10.672,10.664
	c0-5.891-4.781-10.664-10.672-10.664s-10.655,4.773-10.655,10.664c0-5.891-4.781-10.664-10.672-10.664s-10.672,4.773-10.672,10.664
	c0-5.891-4.766-10.664-10.655-10.664c-5.891,0-10.672,4.773-10.672,10.664c0-5.891-4.781-10.664-10.672-10.664
	c-5.891,0-10.655,4.773-10.655,10.664c0-5.891-4.781-10.664-10.672-10.664s-10.672,4.773-10.672,10.664
	c0-5.891-4.766-10.664-10.656-10.664s-10.671,4.773-10.671,10.664c0,0.047,0,0.086,0.016,0.125L53.342,511.984H458.642z"/>
<polygon style="fill:#E9573F;" points="53.342,511.984 458.642,511.984 456.877,479.985 55.107,479.985 "/>
</svg>