<?xml version="1.0" encoding="iso-8859-1"?>
<!-- Uploaded to: SVG Repo, www.svgrepo.com, Generator: SVG Repo Mixer Tools -->
<svg height="800px" width="800px" version="1.1" id="Layer_1" xmlns="http://www.w3.org/2000/svg" xmlns:xlink="http://www.w3.org/1999/xlink" 
	 viewBox="0 0 512 512" xml:space="preserve">
<path style="fill:#AB91EA;" d="M0,256.006C0,397.402,114.606,512.004,255.996,512C397.394,512.004,512,397.402,512,256.006
	C512.009,114.61,397.394,0,255.996,0C114.606,0,0,114.614,0,256.006z"/>
<path style="fill:#947ADB;" d="M511.774,266.374c-1.773-1.745-119.279-119.341-119.771-119.827
	c-6.729-7.372-16.105-12.229-26.811-13.429c-17.049-1.903-32.98,5.804-41.551,20.14l-6.796,11.361
	c-1.914,3.2-1.042,7.168,1.743,9.481c0.385,0.566,92.919,92.963,93.212,93.267c-35.411-9.51-72.66-9.757-108.129-0.597
	c-0.025-0.022-0.052-0.039-0.078-0.061c-0.492-0.487-121.167-121.221-121.681-121.681c-9.001-8.9-21.66-13.386-34.995-11.909
	c-16.793,1.881-30.384,12.699-35.543,28.489L78.471,275.511c-1.171,1.525-1.815,3.433-1.556,5.447l0.098,0.759
	c-0.059,0.973,0.058,1.895,0.361,2.79l3.006,23.331c2.645,20.527,12.155,38.494,25.722,51.277
	c0.487,0.484,138.316,138.358,144.219,144.254c2.859,2.866,5.721,5.727,8.58,8.592C395.492,510.447,506.369,401.998,511.774,266.374
	z"/>
<path style="fill:#F4F6F9;" d="M434.987,281.675l0.098-0.759c0.259-2.015-0.385-3.922-1.555-5.446l-32.967-114.123
	c-5.081-15.534-18.669-26.348-35.456-28.228c-17.043-1.903-32.971,5.803-41.539,20.133l-6.794,11.357
	c-2.114,3.535-0.962,8.121,2.577,10.238c3.529,2.114,8.117,0.965,10.238-2.577l6.794-11.357c6.6-11.047,18.297-13.941,27.066-12.957
	c8.543,0.955,19.051,6.196,22.845,17.782l29.647,102.64c-43.452-12.629-89.995-11.19-132.669,4.581
	c-3.262,1.206-5.26,4.505-4.815,7.956l2.08,16.143h-49.07l2.08-16.143c0.445-3.452-1.553-6.75-4.815-7.956
	c-42.674-15.772-89.219-17.21-132.67-4.581l29.571-102.388c3.871-11.838,14.379-17.079,22.922-18.034
	c8.758-0.98,20.462,1.914,27.066,12.957l6.794,11.357c2.125,3.55,6.706,4.698,10.238,2.577c3.539-2.117,4.691-6.703,2.577-10.238
	l-6.794-11.357c-8.573-14.331-24.555-22.014-41.539-20.133c-16.787,1.881-30.375,12.694-35.533,28.48L78.47,275.47
	c-1.17,1.525-1.815,3.431-1.555,5.446l0.098,0.759c-0.059,0.974,0.057,1.894,0.359,2.79l3.005,23.324
	c5.245,40.693,37.424,71.379,74.852,71.379c36.123,0,67.282-28.608,74.129-67.18h53.282c6.847,38.573,38.006,67.18,74.129,67.18
	c37.428,0,69.607-30.685,74.852-71.379l3.005-23.324C434.93,283.57,435.045,282.649,434.987,281.675z M215.277,305.879
	c-4.286,33.273-30.098,58.359-60.047,58.359c-29.946,0-55.758-25.09-60.047-58.359l-2.69-20.884
	c40.675-13.661,84.799-13.661,125.474,0L215.277,305.879z M416.817,305.879c-4.29,33.269-30.102,58.359-60.047,58.359
	c-29.949,0-55.761-25.087-60.047-58.359l-2.69-20.884c40.675-13.661,84.799-13.661,125.474,0L416.817,305.879z"/>
</svg>