<?xml version="1.0" encoding="iso-8859-1"?>
<!-- Uploaded to: SVG Repo, www.svgrepo.com, Generator: SVG Repo Mixer Tools -->
<svg height="800px" width="800px" version="1.1" id="Layer_1" xmlns="http://www.w3.org/2000/svg" xmlns:xlink="http://www.w3.org/1999/xlink" 
	 viewBox="0 0 512 512" xml:space="preserve">
<path style="fill:#FF9900;" d="M186.66,354.216v15.627c0,21.846-17.773,39.619-39.619,39.619h-27.39
	c-7.602-21.434-28.071-36.831-52.079-36.831v36.831c10.154,0,18.415,8.261,18.415,18.415s-8.261,18.415-18.415,18.415v36.831
	c24.008,0,44.477-15.397,52.079-36.831h27.39c42.154,0,76.45-34.296,76.45-76.45v-15.627H186.66z"/>
<path style="fill:#FFE981;" d="M373.544,197.231l-5.395-8.756H253.476L13.795,30.963L6.292,53.826
	c-21.371,65.134,17.236,124.475,33.433,145.498c-2,9.165-4.136,23.542-2.884,39.817c2.888,37.514,21.813,67.408,54.731,86.455
	c7.253,4.198,14.79,7.534,22.487,10.025c7.471,16.258,17.945,31.193,31.112,44.057c27.228,26.601,63.034,41.533,100.825,42.049
	c0.691,0.009,1.379,0.013,2.07,0.013c38.982,0,75.647-15.025,103.437-42.439c28.287-27.904,43.866-65.153,43.866-104.885
	C395.369,247.093,387.822,220.403,373.544,197.231z"/>
<path style="fill:#FFDB2D;" d="M373.544,197.231l-5.395-8.756H254.182v233.13c36.689-1.488,70.988-16.331,97.32-42.307
	c28.287-27.904,43.866-65.153,43.866-104.885C395.369,247.093,387.822,220.403,373.544,197.231z"/>
<polygon style="fill:#FF9900;" points="450.615,120.953 512,108.676 487.446,145.507 512,182.338 450.615,170.061 "/>
<path style="fill:#FFE257;" d="M358.538,28.876c-67.695,0-122.77,55.073-122.77,122.77s55.075,122.77,122.77,122.77
	s122.77-55.073,122.77-122.77S426.233,28.876,358.538,28.876z"/>
<circle style="fill:#804D00;" cx="383.092" cy="139.369" r="18.415"/>
</svg>