<?xml version="1.0" encoding="iso-8859-1"?>
<!-- Uploaded to: SVG Repo, www.svgrepo.com, Generator: SVG Repo Mixer Tools -->
<svg height="800px" width="800px" version="1.1" id="Layer_1" xmlns="http://www.w3.org/2000/svg" xmlns:xlink="http://www.w3.org/1999/xlink" 
	 viewBox="0 0 512 512" xml:space="preserve">
<path style="fill:#D2555A;" d="M494.345,66.207V52.966c0-2.438-1.976-4.414-4.414-4.414h-4.414c-1.672,0-3.2,0.945-3.948,2.44
	l-7.607,15.215H494.345z"/>
<path style="fill:#464655;" d="M108.882,48.552H92.69c-2.438,0-4.414,1.976-4.414,4.414v13.241h35.31l-6.199-12.398
	C115.776,50.586,112.483,48.552,108.882,48.552z"/>
<path style="fill:#5B5D6E;" d="M485.517,189.793h-17.655V163.31h17.655c4.875,0,8.828,3.953,8.828,8.828v8.828
	C494.345,185.841,490.392,189.793,485.517,189.793z"/>
<path style="fill:#FF6464;" d="M258.813,217.21c-5.58,10.488-12.275,27.799-6.913,43.697c1.39,4.12-1.984,8.333-6.333,8.333h-60.188
	v-61.793h67.543C257.954,207.448,261.176,212.769,258.813,217.21z"/>
<path style="fill:#464655;" d="M476.69,145.655H203.034v61.793h114.019c12.941,0,21.677,13.586,15.988,25.208
	c-4.919,10.049-10.485,18.08-15.335,24.05c-6.483,7.966-16.328,12.535-27,12.535H176.552c-4.879,0-8.828,3.948-8.828,8.828
	c0,4.879,3.948,8.828,8.828,8.828h114.155c16.009,0,30.836-6.94,40.698-19.052c4.881-6.008,10.377-13.864,15.441-23.513
	c12.017-22.901,36.154-36.883,62.017-36.883h50.172c9.751,0,17.655-7.904,17.655-17.655V145.655z"/>
<path style="fill:#5B5D6E;" d="M0,454.621c0-123.586,61.793-194.207,61.793-247.172c0-32.59-22.56-57.661-53.799-61.33
	C3.433,145.582,0,141.717,0,137.123l0,0C0,132.085,4.085,128,9.123,128h7.574c6.088,0,11.745-3.136,14.972-8.298l31.172-49.876
	c4.84-7.743,13.326-12.447,22.457-12.447H291.31v17.655H476.69l0.003-17.655h17.652c9.751,0,17.655,7.904,17.655,17.655V128
	c0,9.751-7.904,17.655-17.655,17.655H281.078c-21.006,0-40.042,12.354-48.468,31.596c-23.368,53.372-67.283,165.642-73.714,268.542
	v8.828H0z"/>
<path style="fill:#515262;" d="M512,128v-26.483H43.034l-11.366,18.185C28.442,124.864,22.784,128,16.697,128H9.123
	C4.085,128,0,132.085,0,137.123c0,4.054,2.739,7.401,6.504,8.532h274.574h213.267C504.095,145.655,512,137.75,512,128z"/>
<path style="fill:#464655;" d="M167.724,463.448H8.828c-4.875,0-8.828-3.953-8.828-8.828l0,0c0-4.875,3.953-8.828,8.828-8.828
	h158.897c4.875,0,8.828,3.953,8.828,8.828l0,0C176.552,459.496,172.599,463.448,167.724,463.448z"/>
<path style="fill:#FF6464;" d="M512,101.517H180.452c-8.045,0-15.654-3.657-20.68-9.939l-27.359-34.199h160.409
	c4.682,0,9.172,1.859,12.483,5.17l7.317,7.315c3.311,3.31,7.801,5.17,12.483,5.17h124.061c6.048,0,11.577-3.417,14.282-8.828l0,0
	c2.705-5.41,8.233-8.828,14.282-8.828h16.614c9.751,0,17.655,7.904,17.655,17.655V101.517z"/>
<path style="fill:#D2555A;" d="M459.034,110.345h-26.483c-4.875,0-8.828-3.953-8.828-8.828l0,0c0-4.875,3.953-8.828,8.828-8.828
	h26.483c4.875,0,8.828,3.953,8.828,8.828l0,0C467.862,106.392,463.91,110.345,459.034,110.345z"/>
<path style="fill:#515262;" d="M125.842,428.138H37.256c-5.214,0-9.379-4.529-8.817-9.711
	c5.651-51.955,22.485-93.238,36.512-127.634c12.515-30.691,23.325-57.197,23.325-83.345c0-5.063-0.423-10.006-1.222-14.808
	c-1.775-10.656,5.876-20.502,16.68-20.502h76.637c12.064,0,20.35,12.207,15.81,23.385c-23.105,56.886-52.385,141.706-61.631,224.774
	C134.052,424.765,130.337,428.138,125.842,428.138z"/>
<circle style="fill:#464655;" cx="56.253" cy="403.84" r="10.483"/>
</svg>