<?xml version="1.0" encoding="iso-8859-1"?>
<!-- Uploaded to: SVG Repo, www.svgrepo.com, Generator: SVG Repo Mixer Tools -->
<svg height="800px" width="800px" version="1.1" id="Layer_1" xmlns="http://www.w3.org/2000/svg" xmlns:xlink="http://www.w3.org/1999/xlink" 
	 viewBox="0 0 512 512" xml:space="preserve">
<path style="fill:#BCBEC0;" d="M362.204,76.168H149.798c-9.22,0-16.696-7.475-16.696-16.696V16.696
	c0-9.22,7.475-16.696,16.696-16.696h212.407c9.22,0,16.696,7.475,16.696,16.696v42.776C378.9,68.693,371.425,76.168,362.204,76.168z
	"/>
<g>
	<path style="fill:#808285;" d="M362.204,0H256.001v76.168h106.203c9.22,0,16.696-7.475,16.696-16.696V16.696
		C378.9,7.475,371.425,0,362.204,0z"/>
	<path style="fill:#808285;" d="M409.505,97.931L378.9,54.21V42.776c-7.725,0-237.403,0-245.798,0V54.21l-30.605,43.721
		c-7.74,11.056,0.203,26.27,13.678,26.27h279.652C409.324,124.201,417.232,108.97,409.505,97.931z"/>
</g>
<path style="fill:#414042;" d="M409.505,97.931L378.9,54.21V42.776c-3.868,0-63.38,0-122.899,0v81.425h139.826
	C409.324,124.201,417.232,108.97,409.505,97.931z"/>
<path style="fill:#808285;" d="M339.926,512h-167.85c-3.992,0-7.853-1.43-10.881-4.033l-55.9-48.033
	c-11.701-10.055-4.591-29.359,10.881-29.359h279.652c15.428,0,22.617,19.275,10.88,29.359l-55.901,48.033
	C347.778,510.57,343.918,512,339.926,512z"/>
<path style="fill:#414042;" d="M395.827,430.575H256.001V512h83.925c3.992,0,7.853-1.43,10.88-4.033l55.901-48.033
	C418.443,449.85,411.255,430.575,395.827,430.575z"/>
<path style="fill:#BCBEC0;" d="M395.827,463.967H116.175c-9.22,0-16.696-7.475-16.696-16.696V107.506
	c0-9.22,7.475-16.696,16.696-16.696h279.652c9.22,0,16.696,7.475,16.696,16.696v339.765
	C412.523,456.491,405.048,463.967,395.827,463.967z"/>
<g>
	<path style="fill:#808285;" d="M395.827,90.81H256.001v373.157h139.826c9.22,0,16.696-7.475,16.696-16.696V107.506
		C412.523,98.285,405.048,90.81,395.827,90.81z"/>
	<path style="fill:#808285;" d="M175.17,322.36c-9.22,0-16.696-7.475-16.696-16.696V158.325c0-9.22,7.475-16.696,16.696-16.696
		s16.696,7.475,16.696,16.696v147.339C191.865,314.884,184.39,322.36,175.17,322.36z"/>
	<path style="fill:#808285;" d="M229.058,322.36c-9.22,0-16.696-7.475-16.696-16.696V158.325c0-9.22,7.475-16.696,16.696-16.696
		c9.22,0,16.696,7.475,16.696,16.696v147.339C245.753,314.884,238.278,322.36,229.058,322.36z"/>
	<path style="fill:#808285;" d="M229.058,402.007c-9.22,0-16.696-7.475-16.696-16.696v-32.058c0-9.22,7.475-16.696,16.696-16.696
		c9.22,0,16.696,7.475,16.696,16.696v32.058C245.753,394.532,238.278,402.007,229.058,402.007z"/>
	<path style="fill:#808285;" d="M175.17,402.007c-9.22,0-16.696-7.475-16.696-16.696v-32.058c0-9.22,7.475-16.696,16.696-16.696
		s16.696,7.475,16.696,16.696v32.058C191.865,394.532,184.39,402.007,175.17,402.007z"/>
</g>
<g>
	<path style="fill:#414042;" d="M282.945,322.36c-9.22,0-16.696-7.475-16.696-16.696V158.325c0-9.22,7.475-16.696,16.696-16.696
		s16.696,7.475,16.696,16.696v147.339C299.64,314.884,292.165,322.36,282.945,322.36z"/>
	<path style="fill:#414042;" d="M336.832,322.36c-9.22,0-16.696-7.475-16.696-16.696V158.325c0-9.22,7.475-16.696,16.696-16.696
		s16.696,7.475,16.696,16.696v147.339C353.527,314.884,346.052,322.36,336.832,322.36z"/>
	<path style="fill:#414042;" d="M336.832,402.007c-9.22,0-16.696-7.475-16.696-16.696v-32.058c0-9.22,7.475-16.696,16.696-16.696
		s16.696,7.475,16.696,16.696v32.058C353.527,394.532,346.052,402.007,336.832,402.007z"/>
	<path style="fill:#414042;" d="M282.945,402.007c-9.22,0-16.696-7.475-16.696-16.696v-32.058c0-9.22,7.475-16.696,16.696-16.696
		s16.696,7.475,16.696,16.696v32.058C299.64,394.532,292.165,402.007,282.945,402.007z"/>
</g>
</svg>